<?xml version="1.0" encoding="utf-8"?>
<!-- Generator: Adobe Illustrator 19.2.0, SVG Export Plug-In . SVG Version: 6.00 Build 0)  -->
<svg version="1.1" id="Layer_1" xmlns="http://www.w3.org/2000/svg" xmlns:xlink="http://www.w3.org/1999/xlink" x="0px" y="0px"
	 viewBox="0 0 96 96" style="enable-background:new 0 0 96 96;" xml:space="preserve">
<style type="text/css">
	.st0{fill:none;}
	.st1{fill:#FFFFFF;}
</style>
<path class="st0" d="M48,94c25.4,0,46-20.7,46-46S73.4,2,48,2S2,22.6,2,48S22.6,94,48,94z M29.7,38.5c0.4-0.4,1-0.4,1.4,0L48,55.4
	l16.9-16.9c0.4-0.4,1-0.4,1.4,0s0.4,1,0,1.4L48.7,57.5c-0.2,0.2-0.4,0.3-0.7,0.3s-0.5-0.1-0.7-0.3L29.7,39.9
	C29.3,39.5,29.3,38.9,29.7,38.5z"/>
<path class="st1" d="M47.3,57.5c0.2,0.2,0.4,0.3,0.7,0.3s0.5-0.1,0.7-0.3l17.6-17.6c0.4-0.4,0.4-1,0-1.4s-1-0.4-1.4,0L48,55.4
	L31.1,38.5c-0.4-0.4-1-0.4-1.4,0s-0.4,1,0,1.4L47.3,57.5z"/>
<path class="st1" d="M48,96c26.5,0,48-21.5,48-48S74.5,0,48,0S0,21.5,0,48S21.5,96,48,96z M48,2c25.4,0,46,20.7,46,46S73.4,94,48,94
	S2,73.4,2,48S22.6,2,48,2z"/>
</svg>
